	<svg class="cover-svg-layer" xmlns="http://www.w3.org/2000/svg" viewbox="0 0 1237.2 1685.8" width="100"
					height="100">
					<g class="layer" id="GRETA">
						<path class="st0" d="M1088,979.7c0,0,3.8-4.7,15-2.1s18.1,5.2,19,9.4c0.9,4.2-0.9,9.4-6.6,10.1c4,2.8,11.7,8.7,13.6,14.3
															c1.9,5.6,1.9,10.3,1.9,10.3s3.8-3.1,6.8-2.3c3.1,0.7,13.4,3.5,16,4.2c2.6,0.7,6.3,0.2,11.3,12.7c4.9,12.4,9.4,27.2,9.4,28.2
															s-4.9,4.9-6.3,6.1s-6.3,2.8-7.7,2.1c-1.4-0.7-4.5,5.2-4.5,5.2s1.4,5.2,1.4,6.8c0,1.6,0.7,9.2,0,10.1c-0.7,0.9-4,2.8-5.2,3.8
															s-2.6,1.2-2.6,1.2s-2.3-4.7-6.3-5.6c-4-0.9-7.5-1.2-7.5-1.2s-4.9,14.1-11.7,17.6c-6.8,3.5-8.5,3.3-8.5,3.3l-2.6-10.6
															c0,0,5.2-10.6,5.4-12.2s-0.7-9.4-0.7-9.4s-7.5,4.9-17.4,4.2c-1.9,3.5-0.9,9.4-0.7,11.7c0.2,2.3,0,6.3-2.6,9.4
															c-2.6,3.1-8.9,12-8.9,12s-6.6-8.5-8.9-9.6c-2.3-1.2-7.7-7.3-7-9.4c0.7-2.1,2.6-7.5,2.6-7.5l-2.6-8c0,0-10.3-1.4-13.6-3.5
															c-3.3-2.1-7-6.1-7-6.1s-4-0.9-5.6-6.3s0.2-28.2,0.9-31c0.7-2.8,8.5-8.7,13.6-9.6s13.8-6.6,16.2-9.2c2.3-2.6,6.3-9.9,6.6-16
															C1083.4,996.6,1088,979.7,1088,979.7z" />
						<g class="button">
							<circle class="st1" cx="1144.4" cy="1013.3" r="30" />
							<polygon class="st2" points="1151.9,1012.3 1145.4,1012.3 1145.4,1005.8 1143.4,1005.8 1143.4,1012.3 1136.9,1012.3
																	1136.9,1014.3 1143.4,1014.3 1143.4,1020.8 1145.4,1020.8 1145.4,1014.3 1151.9,1014.3 		" />
						</g>
					</g>
					<g class="layer" id="ARAFAT">
						<path class="st0" d="M201.4,171.9c0,0-5.5-5.2-14.3-2.4s-13.4,7.6-15.3,10.2s-4,7.9-3.7,9.9c0.4,1.9,1.2,3.5,2.5,3.9
															c1.2,0.4,2.3,0.5,2.1,1.1c-0.2,0.5-2.1,6.3-2.1,6.3s-1.9,11.1,0.2,13.4c-7.4,2.3-10.6,3.9-11.6,6.2c-1.1,2.3-4.2,5.5-4.4,7
															c-0.2,1.6-1.1,7.9-0.7,9.9c0.4,1.9,1.9,5.8,3.9,7.2s3.2,3,3.2,3s-6.5,9-2.1,21.7c2.3,6.7,2.1,7.2,3,9c0.9,1.8,2.8,4.9,3.3,6.7
															c0.5,1.8,13,8.5,15.7,8.8c2.6,0.4,6.9,1.1,9,0.9s14.3-1.4,17.3-2.5c3-1.1,10-2.1,12.3-3c2.3-0.9,8.1-1.9,10.4-3.5
															c2.3-1.6,6.2-7,7-9.3c0.9-2.3,0.9-3.9,1.9-5.8c1.1-1.9,0.4-1.8,1.9-2.3c1.6-0.5,6.5-1.4,4.6-7.6c5.5-1.9,11.1-4.9,12.7-11.8
															c1.6-6.9,2.1-9,0.9-11.1c-1.2-2.1-4.4-3.7-4.4-3.7l-4.6,1.4l0.2-2.8c0,0,6.2-17.6,1.1-32c-5.1-14.4-7.7-16.4-13.9-16.9
															c-1.8-4.2-4.6-8.6-4.6-8.6s6.9,1.8,7.6,1.9s3,2.3,3,2.3s1.1-11.1-5.1-13.6c-6.2-2.5-16-2.5-18,0s-4.4,6-4.4,6l-1.4-0.7
															c0,0,3.2-15.1,11.4-17.1c3.5-0.5,3.7-6.2-1.1-6.5c-4.8-0.4-7.9,2.1-7.9,2.1s-7.7,7.9-7.9,18.7c-2.5,0.4-2.5,0.4-2.5,0.4l-1.2-1.1
															c0,0,0.7-10.2-14.1-15.3c-14.8-5.1-11.8,9-5.1,9.3c6.7,0.4,11.8,2.1,12.9,3c1.1,0.9,3.3,6.7,3.7,7.2c0.4,0.5,1.2,1.9,1.2,1.9
															L201.4,171.9z" />
						<g class="button">
							<circle class="st1" cx="158.7" cy="294.5" r="30" />
							<polygon class="st2" points="166.2,293.5 159.7,293.5 159.7,287 157.7,287 157.7,293.5 151.2,293.5 151.2,295.5 157.7,295.5
																			157.7,302 159.7,302 159.7,295.5 166.2,295.5 		" />
						</g>
					</g>
					<g class="layer" id="KARL">
						<path class="st0" d="M243.2,139.3c0,0-2.8-22.2,6.2-29.7c10-5.4,26.4-9.6,30-10.6s12.7-2.2,14.9-2.5c2.2-0.2,3.1-0.2,5.3,0.7
															s5,2.2,6,3.2c0.9,0.9,2.9,3.6,3.2,8.2s0.8,6.5,1.2,7s6.1,9.9,7.2,11.9s3.5,4.9,3.8,5.5s1.4,1.4,1.4,1.4s10.9,0.4,12.9,1.8
															c2,1.4,2.9,2.9,3.4,4.1c0.5,1.2,1.8,5.6,1.5,7.7c-0.2,2.1-0.5,5.9-0.7,6.7c-0.2,0.8-1.1,2.8-2.4,3.2c-1.3,0.4-0.8,1.4-0.6,1.9
															c0.2,0.5,0.4,2.9-0.2,4.6c-0.6,1.6-1.5,3.1-1.5,4.7c0,1.6,0.8,4.9,1.6,6.6c0.8,1.6,1.9,4.3,1.9,4.3l3.2-0.6c0,0,5.3,1.6,5.9,8.5
															c0,2.3,0.1,9.3-2.2,10.1c-2.3,0.8-4.6,0.6-5.6-0.7c-1-1.3-5.6-3.9-9.2-3.8s-6.5,0.2-6.6,0.9s-2.3,10.7-3.3,12
															c-0.9,1.3-3.5,4.3-5.6,3.1c-2.1-1.3-4.6-5.8-4.6-5.8s-1.6,1.8-2,2c-0.4,0.2-6.1,4.1-6.1,4.1s-0.6,2.4-0.7,3.2
															c-0.1,0.8,0.6,5.9,0.6,5.9l-2.8,1.5l-25.9-11l-2.3-15.7l-4.1,0.4c0,0-7.6,2.6-3.8-9.6c1.6-8.9-0.2-5.5-1.4-5.5
															c-1.2,0-11.7-1.4-18.8-17.1S243.2,139.3,243.2,139.3z" />
						<g class="button">
							<circle class="st1" cx="320.7" cy="95.6" r="30" />
							<polygon class="st2" points="328.2,94.6 321.7,94.6 321.7,88.1 319.7,88.1 319.7,94.6 313.2,94.6 313.2,96.6 319.7,96.6
					319.7,103.1 321.7,103.1 321.7,96.6 328.2,96.6 		" />
						</g>
					</g>
					<g class="layer" id="MARIE">
						<path class="st0" d="M635.2,92.4c0,0,0.9-3.7,6.2-3s7,2.3,7,2.3l2.3,0.7c0,0,2.6-1.8,5.1,2.1c2.5,3.9,6.3,10.9,4.9,25.9
				c-0.2,9.9,0.9,20.6,4.2,27.8s7,20.2,1.6,29.4c-5.5,9.2-5.8,16.2-23.8,21.5c-1.8,5.3-5.1,14.6-10.7,13.4s-9.2-3.9-9.2-3.9l-1.2-2.6
				h-7.4c0,0-8.1-2.5-10-4.2c-1.9-1.8-6.5-6.2-7.2-6.3c-0.7-0.2-9.3-4.4-9.3-4.4l-4-1.8l-1.4,4c0,0-8.6,11.3-20.8,3.5
				c-7.9-5.8-1.9-22.4-0.9-23.8c-7-6.2-12.9-12.5-10.7-20.8c0.5-5.1-2.3-8.8-0.4-11.4s4.1-8.8,10.7-12.7c6.5-3.9,18.8-18.3,22.2-21.8
				c3.3-3.5,12.1-13.4,13-14.4c0.9-1.1,6.9-9.7,15.8-10.6C620.1,80.4,626.6,82,635.2,92.4z" />
						<g class="button">
							<circle class="st1" cx="669.3" cy="103.1" r="30" />
							<polygon class="st2" points="676.8,102.1 670.3,102.1 670.3,95.6 668.3,95.6 668.3,102.1 661.8,102.1 661.8,104.1 668.3,104.1
					668.3,110.6 670.3,110.6 670.3,104.1 676.8,104.1 		" />
						</g>
					</g>
					<g class="layer" id="CAMERON">
						<path class="st0" d="M444,156.3c0,0-0.2-10.4-1.1-14.3s-1.8-14.8,0-17.1s3.7-5.3,7.2-6c3.5-0.7,5.1-1.2,5.1-1.2s2.3-0.4,3-2.6
				c0.7-2.3-0.5-4.2,4.4-3.3c4.9,0.9,6.7-0.2,7.9-1.9c1.2-1.8,3.3-3.3,6.5-2.5c3.2,0.9,2.8-0.7,4.6-2.1c1.8-1.4,1.8,0.7,4.2,1.1
				s3.2,2.1,5.6-0.2c2.5-2.3,2.6-3.5,4.8-2.8c2.1,0.7,0.7,1.4,4.4,3.7c3.7,2.3,5.8,3.3,5.8,3.3s-0.9,1.6,1.6,2.1
				c2.5,0.5,4.2-2.3,6.2-2.3c1.9,0,4.2-0.5,4.8,1.8c0.5,2.3-1.6,2.5,0.5,4.4c2.1,1.9,4.2,3.7,4.2,3.7s-0.2,2.8,2.1,3.7
				c2.3,0.9,4.9,1.2,4.9,2.1c0,0.9-1.4,2.3-1.6,3.9c-0.2,1.6,2.6,2.7,2.5,4.8c-0.2,2.1-1.9,4.9-3.3,5.3c-1.4,0.4-3.2-1.1-3.2,1.1
				s0.9,5.3-0.5,7.2c-1.4,1.9-3,3.5-3.7,4.6c-0.7,1.1-2.1,4.6-1.6,6.3c0.5,1.8-0.5,4-1.8,5.5s-4.6,9.3-5.1,12
				c-0.5,2.6-0.5,8.8-0.5,8.8s4-1.9,6.9,0s5.3,8.6-2.1,16.2c-5.3,4.6-5.5,3.9-5.5,3.9s1.8,9.2,0.9,14.4c-0.9,5.3-0.9,7.6-2.1,8.5
				c-1.2,0.9-10,6.7-12.1,7.4c-2.1,0.7-6.7,2.6-7.7,3.5c-1.1,0.9-2.2,4.4-3.3,4.9s-4.8,3.2-11.5,3c-6.7-0.2-10.6-0.7-12-2.6
				s-3.2-8.3-5.1-9.5c-1.9-1.2-5.1-1.9-5.1-1.9s-9.9-3.5-12.1-4.9c-2.3-1.4-6.2-2.6-4-13c2.1-10.4,2.3-11.8,2.3-12.3s-1.4-3.2-1.4-3.2
				s-12.1-7.4-5.8-20.1c4.2-8.6,8.3-7.4,8.8-6.5C441.4,173.7,439.4,168.8,444,156.3z" />
						<g class="button">
							<circle class="st1" cx="525.7" cy="110.6" r="30" />
							<polygon class="st2" points="533.2,109.6 526.7,109.6 526.7,103.1 524.7,103.1 524.7,109.6 518.2,109.6 518.2,111.6 524.7,111.6
					524.7,118.1 526.7,118.1 526.7,111.6 533.2,111.6 		" />
						</g>
					</g>
					<g class="layer" id="LUKE">
						<path class="st0"
							d="M356.7,129.7c0,0,2.7-2.9,1.8-5.3c-0.9-2.3,0-3.3,2.6-3.8s6.5-1.6,7.3-5.4c0.8-3.8,6.2-7.3,8.1-7.9
				c1.9-0.6,6.5-4.6,11.6-3.2c5.2,1.4,5.8,1.1,6.6,1.4c0.8,0.4,2.8,1.2,3.8,1.6c0.9,0.5,1.8,0.9,1.8,0.9s0.8-1.2,1.8-0.9
				c0.9,0.2,3.8,1.2,4.3,1.5c0.6,0.4,3.3,2.9,4.9,7.6s1.8,5.6,1.8,5.6v0.7c0,0,6-1.2,7.2-0.9c1.2,0.2,5.9,0.1,8.1,4.9
				c2.2,4.8,0.8,5.2,0.9,6.9c0.1,1.8,2.7,3.8,3.4,5.2c0.7,1.4,0.5,4.2,0,4.9s-3.2,5.2-3.3,6.5s-0.7,3.1,0,3.9c0.7,0.8,1.1,2.5-0.2,2.9
				c-1.3,0.5-4.6,2.7-3.2,3.8s2.6,2,2.6,2.9c0,0.9-2,3.5-2,3.5s3.3,0.2,2.8,1.3c-0.5,1.1-1.8,3.8-3.6,4c-1.9,0.2-2.7,0-2.7,0
				s2,1.9,1.9,4.3s0.1,7-1.6,10.2c-1.8,3.2-4,5.5-4.7,7.2c-0.7,1.6-1.3,4-1.3,4l-0.8-0.6c0,0,1.2,4.2,1.6,6.9s0.5,9.6,0.6,11.9
				c0.1,2.2,0.1,3.6,0.1,4c0,0.4-1.2,2.3-1.6,2.9c-0.5,0.6-1.6,0.5-2.2,1.1c-0.6,0.6-3.4,1.9-3.6,2.5c-0.2,0.6,0,1.3-0.8,2.1
				c-0.8,0.8-4.8,3.6-4.8,3.6s-1.5,2.6-2.1,3.2c-0.6,0.6-2.3,2.6-3.1,2.8c-0.7,0.2-2.8,0.4-3.2,0.7c-0.4,0.4-0.1,0.6-2.4,0.5
				c-2.2-0.1-3.2-0.2-4.3,0c-1.2,0.2-5.3-1.3-5.3-1.3s-1.4-3.1-2.7-3.9s-1.8-1.1-2.7-0.5c-0.9,0.6-2.5,0.4-2.5,0.4s-1.5-3.2-2.7-3.3
				c-1.2-0.1-2.9,0-3.8-0.4c-0.8-0.4-3.3-2.2-4.5-4c-1.2-1.8-3.9-3.6-4.9-4.5c-1.1-0.8-2.6-4.5-3.6-5.9s-2.6-3.8-2.2-5.4
				c0.4-1.6-1.2-1.3-0.8-3.2c0.4-1.9,0.9-2.9,1.1-3.5c0.1-0.6-1.2-2.9-1.9-5s-0.7-4.3-1.1-5.6s-2.1-2.7-2.1-2.7l-3.5-3.2
				c0,0-0.1-3.8-2.6-6c-2.5-2.2-3.3-2.5-3.3-2.5s-6-14.2,3.1-17.7c-1.1-1.2-6.1-4.3-0.8-6.2c3.2-1.5-1.3-4.6,0.9-6s5.4-0.8,4.6-3.1
				c-0.8-2.2-4.9-2.9-4.5-4.9s3.5-2.8,3.5-2.8s4.2-2.8,4.6-4.3c0.4-1.5-4-3.5-0.1-4.6C356.6,128.8,356.7,129.7,356.7,129.7z" />
						<g class="button">
							<circle class="st1" cx="365.2" cy="220.9" r="30" />
							<polygon class="st2" points="372.7,219.9 366.2,219.9 366.2,213.4 364.2,213.4 364.2,219.9 357.7,219.9 357.7,221.9 364.2,221.9
					364.2,228.4 366.2,228.4 366.2,221.9 372.7,221.9 		" />
						</g>
					</g>
					<g class="layer" id="CHIRAC">
						<path class="st0" d="M572.7,214.7c5.1,1.8,12.5,4.8,13.9,6.5c1.4,1.8,3.5,6.3,4.4,8.6c0.9,2.3,4.2,10.7,4.6,14.6s3,12.7,3.2,14.1
				c0.2,1.4,1.9,2.5,3.7,0.9s4-0.5,5.5,0c1.4,0.5,3.5,2.1,3.7,3.2c0.2,1.1,2.6,8.3,1.1,12.7c-1.6,4.4-5.3,14.6-7.6,16.9
				c-2.3,2.3-4.6,4.2-4.9,5.3c-0.4,1.1-0.5,3.2-0.5,3.2s4.2,6.2,4.4,14.6c0.2,8.5-4,12.3-6,14.4c-1.9,2.1-4.2,3.9-7.9,4.2
				s-6.9-1.1-6.9-1.1l-3.5-1.4l-3.9-1.6c0,0,0.5,3.6-5.5,4.1c-6,0.5-10.7-1.3-13.4-1.3c-2.6,0-11.4-0.7-14.1-0.9
				c-2.6-0.2-7.9-1.6-10-2.5c-2.1-0.9-5.3-1.9-4.8-5.5c0.5-3.5-0.1-4.9-0.1-4.9s-1.9,0.2-4.3-0.7s-5.5-2.6-6.5-2.6s-7,0.9-9.3-2.5
				c-2.3-3.3-7.4-8.8-1.1-19s10-12.1,10-12.1s-3.9-8.5-5.8-11.6s-2.6-12.7,0-16.5c0.9-5.5,3.2-10.7,8.5-8.3c5.3,2.5,8.5,6.7,8.5,6.7
				s3.7-6.3,4.9-7.7s7-11.1,9.2-13.4c2.1-2.3,6.7-12.1,15-15C560.2,214.2,565.4,212.2,572.7,214.7z" />
						<g class="button">
							<circle class="st1" cx="599.7" cy="330.9" r="30" />
							<polygon class="st2" points="607.2,329.9 600.7,329.9 600.7,323.4 598.7,323.4 598.7,329.9 592.2,329.9 592.2,331.9 598.7,331.9
					598.7,338.4 600.7,338.4 600.7,331.9 607.2,331.9 		" />
						</g>
					</g>
					<g class="layer" id="DAVID">
						<path class="st0" d="M864.8,618.7c0,0-3.1-1.2,0-6.6s10.1-25.1,34.3-26.8c24.2-1.6,44.8,16,59.9,36.4c6.1,6.8,6.1,6.8,6.1,6.8
				l-9.6-2.3l9.6,11.3c0,0-6.6-6.1-13.4-6.3c-0.7,1.6,5.9,10.8,5.9,10.8l-11.7-2.8l11,11.3c0,0-8.5-6.1-16.7-7
				c3.1,3.8,6.1,5.9,6.1,5.9l-5.2-0.7c0,0,7.5,2.3,6.3,9.6c-1.2,7.3-4.9,10.1-4.9,10.1l-4.7,9.2l9.2,4.5c0,0-4,4-9.4,4.2
				c-5.6,3.1-24.9,16-24.9,16s-8,4-9.9,4s-8-1.2-8-1.2l-27.9-0.9c0,0-7-6.6-13.6-7.3c4.5-5.4,6.8-12.4,5.6-16.4
				c-3.5-1.9-20.2-11.6-13.1-34.6c-0.5-8.4,1.2-13.8,4.2-16.8s3.8-7.3,6.8-8.5C859.9,619.1,864.8,618.7,864.8,618.7z" />
						<g class="button">
							<circle class="st1" cx="858.2" cy="599" r="30" />
							<polygon class="st2" points="865.7,598 859.2,598 859.2,591.5 857.2,591.5 857.2,598 850.7,598 850.7,600 857.2,600 857.2,606.5
					859.2,606.5 859.2,600 865.7,600 		" />
						</g>
					</g>
					<g class="layer" id="ANGELE">
						<path class="st0" d="M955.4,698.5c-3.9,2.8-7.3,6.8-8.2,12.7c-0.9,5.9-8.5,24.2-2.3,32.2c6.1,7.7,10.6,7.7,10.6,7.7
				s3.3,13.4-1.6,19s-8.2,12.2-15.7,15.5c-5.6,3.5,7.9,7.3,9.2,7.7c1.3,0.5,2.7,1.4,2.7,1.4v5.2c0,0-3.8,4.7,2.1,9.2
				c-1.9,3.3-4,8,2.1,8.7c2.3,2.6,6.1,8.9,6.8,15c4,0.9,18.5,0.2,24.2-3.1c5.6-3.3,7.3-2.6,7.3-2.6s8.2,14.6,8.2,19.5
				c7.3-0.5,14.3-1.6,14.3-1.6s4.7,30,6.8,34.5c2.1,4.5,5.2,13.1,5.2,13.1l53.3-1.4c0,0-13.1-37.6-13.1-54s-0.5-58-1.2-66.2
				s1.4-56.6-42.5-82.6C1005.6,679.9,975.8,683.9,955.4,698.5z" />
						<path class="st0" d="M725.6,768.4c0,0-21.1,15.5-28.2,34.5c-4,16-4.5,22.5-4.5,22.5s-4.2,2.1-4.5,10.6s3.3,12.4,3.3,12.4
				s-1.4,14.1-5.6,18.1c-4.2,4-9.9,16.2-11,23.9c-1.2,7.7,0.7,9.9,0.7,9.9h13.9c0,0,11.7-2.6,14.3-2.3s3.5,0.7,3.5,0.7
				s17.6,3.8,29.3,0c11.5-2.8,18.8-1.2,18.8-1.2s9.6,4.9,12.4,9.2c6.1-0.2,23.2-0.7,23.2-0.7s1.9-17.4-1.6-24.4
				c-3.5-7-3.5-13.1,0.7-27.9c4.2-14.8-4-25.8-4.7-27.9s1.9-19.5-5.4-31.5c-7.3-12-14.8-24.2-23.9-26.5
				C742.7,768,725.6,768.4,725.6,768.4z" />
						<g class="button">
							<circle class="st1" cx="1050" cy="714" r="30" />
							<polygon class="st2" points="1057.5,713 1051,713 1051,706.5 1049,706.5 1049,713 1042.5,713 1042.5,715 1049,715 1049,721.5
					1051,721.5 1051,715 1057.5,715 		" />
						</g>
						<g class="button">
							<circle class="st1" cx="778.6" cy="790.2" r="30" />
							<polygon class="st2" points="786.1,789.2 779.6,789.2 779.6,782.7 777.6,782.7 777.6,789.2 771.1,789.2 771.1,791.2 777.6,791.2
					777.6,797.7 779.6,797.7 779.6,791.2 786.1,791.2 		" />
						</g>
					</g>
					<g class="layer" id="NOTREDAME">
						<path class="st0" d="M422.1,867.5l3.8-8.5l2.8,2.8l3.3-13.6l5.6,23.9v3.8l4.2-2.8c0,0-3.3,5.6,0,9.4c3.3,3.8,3.8,8,3.8,8
				s-2.8,2.3,0,2.3s9.4-8,11.7-14.1s3.3-8.9,6.6-10.8c3.3-1.9,10.8-8,10.8-8s0.9,4.7,2.3,10.6s1.4,6.8,2.8,6.3s2.3-4.7,4.7-1.9
				c2.3,2.8,3.3,5.6,5,2.3c1.6-3.3,1.2-7,5.4-6.8s8.5-4,8.5-4s0.9-5.2,4.2,0c3.3,5.2,0.5,5.6,4.7,7c4.2,1.4,3.8,0.9,5.6,1.4
				c1.9,0.5,3.3,3.8,5.2,4.7c1.9,0.9,2.3-3.8,2.3-3.8s2.3,0.9,2.3,3.8s1.4,11.3,1.4,11.3s-0.5,5.6,5.2,7c3.8-6.6,7-10.4,7-10.4
				s0,2.9,0,6.2c0,3.3,1.3,5.2,2,8c0.8,2.8-1.6,7.5-1.6,7.5s30.5-18.9,63.9-21.6c36.6-6.5,49.8-9.8,67.6-8.9
				c-0.5-36.6,0-108.5,0-108.5l60-4.2c0,0-7.5-16-1.8-27.7c-11.7,7-13.1,7-13.1,7l-7,0.9c0,0,8.9-17.8,10.3-21.1
				c1.4-3.3,0-22.1,0-22.1s3.3-8,2.8-10.3s-6.1-4.7-9.9-9.4c-3.8-4.7-2.8-10.8-1.9-12.2c0.9-1.4,5.6-13.1,5.6-13.1l-14.1,8.5l-5.6,3.3
				c0,0,3.8-8.9,1.9-13.1c-1.9-4.2-3.8-4.7-2.8-7c0.9-2.3,0.9,0.4,2.3-4c1.4-4.4,2.3-9.1,2.3-9.1s-5.6-0.5-7.5-1.9
				c-1.9-1.4-3.3-3.8-2.8-6.6s1.9-7,2.3-8.5c0.5-1.4,2.8-12.2,1.4-19.7c-1.4-7.5,0.9-21.1,1.9-23.9c0.9-2.8,2.8-14.6,2.8-20.2
				s1.4-33.3,4.7-39.4c3.3-6.1,4.7-7.5,5.2-10.3c0.5-2.8-0.9-9.4,0.5-16c1.4-6.6,2.8-10.8,3.3-13.1c0.5-2.3,0-20.7,0-23
				s-0.5-4.7-0.5-4.7l-3.8,5.2c0,0-18.8,49.8-22.1,58.7c-3.3,8.9-8.8,36.6-13.1,42.3c-4.3,5.6-10.9,23.3-12.8,29.9
				c-1.9,6.7-3.3,13.7-6.1,19.4s-11.7,19.7-14.1,27.2s-8.5,7-8,20.2c-2.8,7-4.2,5.2-6.6,9.9c-2.3,4.7-6.6,12.2-6.6,12.2
				s-2.3-12.2-5.6-11.7c-3.3,0.5-2.3,4.2-4.2,6.1c-1.9,1.9-5.6,6.6-8.5,9.4s-5.6,3.8-5.6,3.8l-1.4-2.3l-0.9-8.5l-8,2.8
				c0,0-8-18.8-8.7-25.8c-0.7-7-7.2-8.9-7.2-16s-3.3-15.5-3.8-16.9c-0.5-1.4-3.3,4.7-4.7,1.4c-1.4-3.3-6.1-14.1-6.1-16
				s-5.2-15-11.3-20.7c-3.8-14.6-4.2-15-6.6-19.2c-2.3-4.2-3.8-10.8-6.6-18.8s-8.9-18.3-10.8-25.8c-1.9-7.5-7-10.8-9.9-15.5
				c-2.8-4.7-6.6-15.5-6.6-18.3s-8.5-8.5-8.5-8.5s0.9,12.7,0,18.3c-0.9,5.6-1.4,10.8-2.3,15s-1.4,13.6,0.9,17.8
				c2.3,4.2,4.2,13.1,4.2,21.1s2.3,18.3,5.2,23.9S514.6,591,516,599c1.4,8,2.3,28.6,4.7,36.6s6.6,7.5,8.9,13.1
				c2.3,5.6,6.6,33.8,6.1,38.5s-3.3,11.7-2.8,16c0.5,4.2,3.8,16,3.8,16s-5.6,7.5-3.8,13.1s-1.4,4.7-1.4,4.7s-1.4,6.1-3.3,8
				c-1.9,1.9-4.7,5.2-6.1,6.6c-1.4,1.4-1.9,5.2-4.7,5.6s-8,3.8-9.4,7s-5.6,12.7-5.6,12.7l-2.8,6.6c0,0-3.8-14.1-1.4-18.8
				c2.3-4.7-1.9-9.9,0.5-15.5s6.6-11.3,6.1-22.1c-0.5-10.8-0.5-16.4,0-19.2c0.5-2.8,0.5-11.3,0.5-12.7c0-1.4-3.8,3.3-5.2,9.4
				c-1.4,6.1-5.2,19.2-8,25.8c-2.8,6.6-5.2,15.5-5.2,19.7c0,4.2-2.3,11.7-6.1,15c-3.8,3.3-2.8,5.2-4.7,9.9c-1.9,4.7-7,5.6-9.9,12.2
				c-2.8,6.6-5.2,10.3-7.5,13.6c-2.3,3.3-5.6,7.5-8,6.1c-2.3-1.4-2.3-12.7-4.7-10.3s-6.6,7.5-7.5,8.9c-0.9,1.4-5.2-2.3-6.6,0
				s-9.9,10.3-9.9,10.3s-2.1-2.6-1.6-4.5c0.5-1.9-1.4-6.6-1.6-10.1c-0.2-3.5,0.7-7.7,0-10.1c-0.7-2.3-2.1-12.2-2.1-13.9
				c0-1.6,1.6-6.3,1.6-6.3s-2.1-6.1-4.2-4c-2.1,2.1-4,1.9-3.5,5.2c0.5,3.3,0.1,7.5-0.1,8.5c-0.2,0.9-1.8,0.2-1.8,2.6s0.2,8.5,0.7,9.9
				c0.5,1.4-0.7,3.8-1.4,4.9c-0.7,1.2-3.5,2.3-1.9,5.2c1.6,2.8,2.8,3.1,3.1,4.5c0.2,1.4-1.6,5.6-1.4,7.5c0.2,1.9,1.2,4,1.2,4
				s-3.4,4.7-3.3,8c0,3.3,1.9,4.2,1,7c-0.9,2.8-1.9,3.3-1.9,5.2s0.2,2.8,0,5.6s-1.2,4.7-1.2,4.7s-2.8,2.3-3.5,4.9
				c-0.7,2.6-0.9,8.9-0.9,8.9l7.7,1.2l11.7-0.9L422.1,867.5z" />
						<g class="button">
							<circle class="st1" cx="585.7" cy="775.4" r="30" />
							<polygon class="st2" points="593.2,774.4 586.7,774.4 586.7,767.9 584.7,767.9 584.7,774.4 578.2,774.4 578.2,776.4 584.7,776.4
					584.7,782.9 586.7,782.9 586.7,776.4 593.2,776.4 		" />
						</g>
					</g>
					<g class="layer" id="TOUR">
						<path class="st0" d="M435.6,942.7c0-2.1,0.7-9.2,4.9-14.1s15.8-29.9,54.6-39.8c15.8-3.2,26.4-0.7,38.7,13.7
				c10.2,13,3.5,25.7,1.1,27.1c-2.5,1.4-5.6,1.1-5.6,1.1s-1.4,3.5-0.7,4.9c0.7,1.4,0,8.5-0.7,10.6c-0.7,2.1,0.7,7.7,2.8,8.8
				c2.1,1.1,9.5,9.9,10.2,12.3s5.3,11.3,0,11.6c-3.2,0-4.9,0-4.9,0l-3.5,6.3l-1.1,4.2l-3.5,9.9c0,0-2.5,11.6-6.3,10.2
				c-3.9-1.4-6-3.2-6-3.2s-7,8.8-11.3,8.1s-18-13-19.7-14.1c-1.8-1.1-8.1,1.4-8.1,1.4s-11.3,4.9-13,3.9c-1.8-1.1-5.3-3.5-5.3-3.5
				s-7.7-15.1,1.1-29.6c2.5-2.8,3.9-3.2-1.1-7.7c-4.9-4.6-6.3-12.1-5.6-13.8C445.8,949.4,435.6,946.8,435.6,942.7z" />
						<path class="st0" d="M649.8,1070.8l5.6-21.6c0,0-21.6-7-13.6-23.9c8-16.9,25.8-10.8,28.2-8c8.5-8,8.5-8,8.5-8s-8.5-30.5,19.2-30.1
				c27.7,0.5,20.7,25.8,18.3,30.5c7.5,9.4,8.9,11.3,8.9,11.3s19.7-2.3,24.4,8.5c4.7,10.8,7,16,0,20.2c-7,4.2-16,5.6-16,5.6l3.8,25.8
				h8.9l1.4,7.5h-100L649.8,1070.8z" />
						<g class="button">
							<circle class="st1" cx="456.6" cy="912.4" r="30" />
							<polygon class="st2" points="464.1,911.4 457.6,911.4 457.6,904.9 455.6,904.9 455.6,911.4 449.1,911.4 449.1,913.4 455.6,913.4
					455.6,919.9 457.6,919.9 457.6,913.4 464.1,913.4 		" />
						</g>
						<g class="button">
							<circle class="st1" cx="735.9" cy="1003.9" r="30" />
							<polygon class="st2" points="743.4,1002.9 736.9,1002.9 736.9,996.4 734.9,996.4 734.9,1002.9 728.4,1002.9 728.4,1004.9
					734.9,1004.9 734.9,1011.4 736.9,1011.4 736.9,1004.9 743.4,1004.9 		" />
						</g>
					</g>
					<g class="layer" id="MEGHAN">
						<path class="st0" d="M137,939.9c-10,29-1.4,43-1.4,43l5.6-10.2c0,0,1.4,7,2.5,16.5l4.2-13l1.4,8.1l3.6-4.9l3.2,7.7l3.5-4.6l1.8,2.1
				l1.1,8.5l3.9-4.9c0,0,5.3,18.7,21.1,18c1.1,2.8,5.6,7.1,8.8,0c2.5,2.4,6.7,6.3,8.1-1.4c4.6-0.4,7.4,2.1,9.9,4.2
				c2.5,2.1,5.3,8.8,6,11.3s4.2,13,4.9,17.6c0.7,4.6,9.5,22.2,10.9,23.9s7,4.6,7,4.6l15.1,8.1l8.1-13.4c0,0-7-15.5-5.6-29.2
				c1.4-13.7,4.2-27.8,4.2-27.8l19.4-9.9c0,0,3.2-4.6,1.8-10.2c-1.4-5.6-3.2-15.8-3.2-15.8l2.5-3.2c0,0-0.7-6-7-2.1
				c-3.2-2.1-8.5-4.9-8.5-4.9l-7.4-3.9c0,0,18.3-3.5,27.5-9.5c2.1-1.8,0.7-3.5-7-2.5c-7.7,1.1-26.1,0.4-32-6.7
				c-6-7-16.5-27.5-34.2-33.1c0.7-6.3,0.7-12,6.7-11.6c-0.4-1.1-0.7-4.9-6-0.4c-5.3,4.6-3.9,6-3.9,6s-12.3-17.6-31.3-10.6
				C163,892.7,150,902.3,137,939.9z" />
						<g class="button">
							<circle class="st1" cx="225.5" cy="884" r="30" />
							<polygon class="st2" points="233,883 226.5,883 226.5,876.5 224.5,876.5 224.5,883 218,883 218,885 224.5,885 224.5,891.5
					226.5,891.5 226.5,885 233,885 		" />
						</g>
					</g>
					<g class="layer" id="TOM">
						<path class="st0" d="M137,939.9c0,0-9.9-8.5-25.7-7c-15.8,1.4-26.4,14.4-28.2,17.6c-1.8,3.2-8.1,17.6-8.1,29.6
				c-4.6,2.5-16.5,9.2-18,19.7c-1.4,10.6,3.9,10.6,4.6,12.3c0.7,1.8,1.8,8.5,1.8,8.5s-5.4,1.8-6.6,14.1c-1.2,12.3,4.8,21.5,18.9,20.8
				c4.6,9.5,4.6,23.2,5.3,26.8c0.7,3.5,2.1,8.5,15.8,8.8c0.7,9.2,4.2,31.3,4.2,31.3s18,11.6,22.9,10.9c4.9-0.7,11.3-1.8,11.3-1.8
				l1.8-36.3l20.8-7.4l-3.9-10.9c0,0,18-8.5,10.6-25.7s-8.5-19.4-8.5-19.4s9.5-18,3.5-28.5c-5.6-8.1-10.9-3.5-10.9-3.5
				s-1.4-9.9-4.9-10.6c-1.1-9.5-2.5-16.5-2.5-16.5l-5.6,10.2C135.6,982.9,130.3,969.9,137,939.9z" />
						<g class="button">
							<circle class="st1" cx="76" cy="973.9" r="30" />
							<polygon class="st2" points="83.5,972.9 77,972.9 77,966.4 75,966.4 75,972.9 68.5,972.9 68.5,974.9 75,974.9 75,981.4 77,981.4
					77,974.9 83.5,974.9 		" />
						</g>
					</g>
					<g class="layer" id="INSTAGRAM">
						<path class="st0" d="M1068.1,1233.2l-54,135.7l15.5-6.1c0,0,3.8,0.9-0.9,10.8s-14.1,24.4-23.5,26.3c-3.8,2.7-9.4,18.3-9.4,18.3
				l88.3,37.1l-7-27.7c0,0,1.9-8.9,7-8s11.7,8.5,11.7,8.5l5.6,12.7l36.6-85.9l31-80.8L1068.1,1233.2z" />
						<g class="button">
							<circle class="st1" cx="1025.8" cy="1312.4" r="30" />
							<polygon class="st2" points="1033.3,1311.4 1026.8,1311.4 1026.8,1304.9 1024.8,1304.9 1024.8,1311.4 1018.3,1311.4
					1018.3,1313.4 1024.8,1313.4 1024.8,1319.9 1026.8,1319.9 1026.8,1313.4 1033.3,1313.4 		" />
						</g>
					</g>
					<g class="layer" id="WEIGHT">
						<path class="st0" d="M814.6,1188.6v100.9v3.8l8,3.8l12.7-3.3c0,0-0.9,116-1.4,123.5c-0.5,7.5-4.7,26.8-0.5,44.6
				c13.6-3.8,13.6-3.8,13.6-3.8s-0.5-59.2,0-68.5s1.9-98.1,1.9-98.1l22.5-3.3v-29.6c0,0-17.8,1.4-21.6-4.7c7-15,21.6-42.7,21.6-42.7
				v-33.3c0,0-0.9-9.4-13.6-6.6S814.6,1188.6,814.6,1188.6z" />
						<path class="st0" d="M832.9,1470.3v39.9l-30.5-7.5c0,0-7-1.4-11.3,0c-4.2,1.4-62,7.5-62,7.5l-1.9,8c0,0,6.6,1.4,6.6,3.8
				s-6.6,6.6-6.6,6.6v3.3c0,0,13.1-3.3,25.4,0c12.2,3.3,20.2,5.2,14.1,11.3c-6.1,6.1-17.8,15-34.3,14.6s-18.8-3.3-18.8-3.3
				s-16.9-2.8-14.6-10.8c2.3-8,2.3-8,2.3-8s-6.6,4.2-10.3,4.2c-3.8,0-13.1-1.4-14.1-3.3c-0.9-1.9,0-3.8,0-3.8s-2.3-3.2,1.9-8.2
				c4.2-5-2.5-9.2-2.5-9.2l-32.2,5.2l-5.2,4l1.4,17.1l3.3,1.4l-0.5,6.1c0,0,3.3,5.2,8.5-0.9c14.6,8.5,61,36.6,61,36.6l12.7,6.6
				c0,0,0.9,12.7,8,11.7c7-1.4,8-9.9,7.5-12.2c12.7-4.2,145.1-41.8,145.1-41.8l8.5-8.9v-12.2l-7-5.2l-41.8-9.9l0.5-46.5L832.9,1470.3z
				" />
						<g class="button">
							<circle class="st1" cx="808.6" cy="1429.1" r="30" />
							<polygon class="st2" points="816.1,1428.1 809.6,1428.1 809.6,1421.6 807.6,1421.6 807.6,1428.1 801.1,1428.1 801.1,1430.1
					807.6,1430.1 807.6,1436.6 809.6,1436.6 809.6,1430.1 816.1,1430.1 		" />
						</g>
					</g>
					<g class="layer" id="ELECTIONS">
						<path class="st0" d="M559.9,1334.3l-18.3-8.1l-22.9,54.9l2.5,3.2l38.7,14.8l21.8-55.3l-7.4-2.8l-6,9.5l-3.9-3.9l-3.2,4.2
				C561.3,1350.9,556,1344.5,559.9,1334.3z" />
						<path class="st0" d="M528.2,1402.6l-90.5,4.9c0,0-5.3-2.8-4.9,6c0.4,8.8,8.1,176.1,8.1,176.1l11.6,9.2h-18.3l-2.8,9.2l-9.2-6.7v2.5
				c0,0-14.8,6.7-23.2,1.4c-5.6,1.4-7,1.4-7,1.4s-3.2,13.4-7,16.2c9.2,12,10.2,13.4,10.2,13.4s5.6,7,12.3,2.8s24.3-9.2,24.3-9.2
				l8.8,10.5l3.2,6.4c0,0,23.6-8.1,35.6-23.9c12.3,9.9,27.1,23.9,27.1,23.9l84.5-26.4c0,0,24.3,19.7,38.7,23.2
				c14.4-10.2,30.3-29.2,30.3-29.2s0.4-3.9-16.2-7c2.8-1.8,2.8-1.8,2.8-1.8s40.8-7,47.2-12.7c-12.7-13.7-23.2-25-23.2-25l-22.2,8.8
				l-10.6-3.5l6.7-12.7c0,0,1.4-4.6-2.5-4.2c-3.9,0.4-26.8,0.4-31.7-3.5c-0.4-11.6-1.1-78.5-1.1-78.5l-1.8-53.5c0,0-0.7-3.9-7-4.6
				C594,1415.3,528.2,1402.6,528.2,1402.6z" />
						<g class="button">
							<circle class="st1" cx="509.3" cy="1381.7" r="30" />
							<polygon class="st2" points="516.8,1380.7 510.3,1380.7 510.3,1374.2 508.3,1374.2 508.3,1380.7 501.8,1380.7 501.8,1382.7
					508.3,1382.7 508.3,1389.2 510.3,1389.2 510.3,1382.7 516.8,1382.7 		" />
						</g>
					</g>
					<g class="layer" id="IPHONE">
						<path class="st0" d="M571.8,1218.2l4.2,18.8l8.9,8c0,0,1.9,8.5,0,10.3c-1.9,1.9,4.1,4.9,3.2,9.3s-1.6,6.2-1.6,6.2l-3.2-1.1v2.8
				c0,0,3.2,1.8,3,3.5c-0.2,1.8-3.2,5.1-3.2,5.1l1.4,14.1c0,0-1.1,9,9.5,6.7s32.2-7,32.2-7s1.4-0.7,1.1-3.7c-0.4-3-1.4-5.1-1.4-5.1
				l-0.2-6.9l-1.2-5.1l-0.7-2.5l-2.5-11.4l-10,2.7c0,0-5.1,1.4-6.3-1.9c-1.2-3.3,4.6-6.3,9.9-8.3c5.6-1.8,5.6-1.8,5.6-1.8l-6.9-38.2
				c0,0,0-7-6.2-5.1c-6.2,1.9-32.7,7.4-32.7,7.4S571.4,1216.3,571.8,1218.2z" />
						<g class="button">
							<circle class="st1" cx="627.5" cy="1203.8" r="30" />
							<polygon class="st2" points="635,1202.8 628.5,1202.8 628.5,1196.3 626.5,1196.3 626.5,1202.8 620,1202.8 620,1204.8
					626.5,1204.8 626.5,1211.3 628.5,1211.3 628.5,1204.8 635,1204.8 		" />
						</g>
					</g>
					<g class="layer" id="BILLIE">
						<path class="st0" d="M147.9,1177.8c0,0-22.5,6.1-29.1,35.2c-6.6,29.1-13.6,106.1-10.8,128.2c2.8,22.1,15,61.4,15,61.4l4.6,6.7
				v-10.2l11.8,19.1l8.5,4.7c0,0-17.8-59.2-18.3-67.6c-0.5-8.5-2-18.8-2-18.8s4.3-16.4,7.1-10.3s4.7,7.5,8.5,8.9
				c3.8,1.4,4.7,3.8,4.7,3.8l1.9,14.1c0,0,12.2,8.5,18.8,6.6c6.6-1.9,14.1-4.2,14.1-4.2s3.3,30,2.3,37.6c-0.9,7.5-4.7,44.6-5.2,46
				c-0.5,1.4-2.3,9.4-0.5,8s12.2-5.2,12.2-5.2l5.6-19.7v9.9c0,0,19.2-8.5,24.9-36.6c5.6-28.2,3.3-80.8,0-109.9
				c-3.3-29.1-8.5-56.3-21.1-74.2C188.3,1193.3,185,1177.8,147.9,1177.8z" />
						<g class="button">
							<circle class="st1" cx="211.4" cy="1211.3" r="30" />
							<polygon class="st2" points="218.9,1210.3 212.4,1210.3 212.4,1203.8 210.4,1203.8 210.4,1210.3 203.9,1210.3 203.9,1212.3
					210.4,1212.3 210.4,1218.8 212.4,1218.8 212.4,1212.3 218.9,1212.3 		" />
						</g>
					</g>
					<g class="layer" id="DUNCAN">
						<path class="st0" d="M135.7,608.8h-8.9l-1.4,2.3l-5.2,1.4l-1.9,3.3h-4.2l-2.6,2.3l-5.3,5.2c0,0-6.1,8-7,14.6
				c-0.9,6.6-0.5,19.2,10.3,33.8c1.9,5.6,1.3,16.9,2.1,20.2c-6.7-0.9-12.6-0.5-12.7,5.2c-0.1,5.6-3.9,26.3,25.2,33.3
				c0,9.4-2.3,20.2-0.5,21.6c1.9,1.4,14.6,8.9,14.6,8.9l7,13.1l3.3,10.8v21.6l22.1,23.5l8.5,5.2l10.3-12.2c0,0,3.3-4.2,2.3-15
				c-0.9-10.8-8.5-45.5-9.4-49.8c0,0,11.7-13.1,13.1-16.9c1.4-3.8,4.2-14.6,0-27.2c-3.3-9.9,3.8-15,3.8-15s5.2-23-8.5-20.7
				c-6.6,0.9-8.9,5.6-8.9,5.6v-10.8l-3.8-9.9c0,0,5.2-12.7,2.8-19.7c2.3-8.9,1.9-15.5-1.4-16.4c-3.3-0.9,1.4-8.5-7.5-14.1
				c-3.3-5.2-9.9-9.9-25.4-9.9c-7,0.9-7,0.9-7,0.9l-4.7-0.9L135.7,608.8z" />
						<g class="button">
							<circle class="st1" cx="98.5" cy="633.2" r="30" />
							<polygon class="st2" points="106,632.2 99.5,632.2 99.5,625.7 97.5,625.7 97.5,632.2 91,632.2 91,634.2 97.5,634.2 97.5,640.7
					99.5,640.7 99.5,634.2 106,634.2 		" />
						</g>
					</g>
				</svg>